<svg width="35" height="34" viewBox="0 0 35 34" fill="none" xmlns="http://www.w3.org/2000/svg">
<rect x="0.358292" width="34" height="34" rx="9" fill="#1A1F16"/>
<path d="M24.3424 13.9555C24.2381 13.8505 24.1139 13.7672 23.9772 13.7105C23.8405 13.6538 23.6938 13.6247 23.5458 13.625H21.2958V13.0625C21.2958 12.0182 20.8809 11.0167 20.1425 10.2783C19.4041 9.53984 18.4026 9.125 17.3583 9.125C16.314 9.125 15.3125 9.53984 14.5741 10.2783C13.8356 11.0167 13.4208 12.0182 13.4208 13.0625V13.625H11.1708C10.8724 13.625 10.5863 13.7435 10.3753 13.9545C10.1643 14.1655 10.0458 14.4516 10.0458 14.75V22.3438C10.0458 23.7148 11.2059 24.875 12.577 24.875H22.1395C22.8028 24.8752 23.4397 24.6159 23.9142 24.1525C24.153 23.9247 24.3432 23.6509 24.4732 23.3476C24.6032 23.0442 24.6704 22.7177 24.6708 22.3877V14.75C24.6712 14.6024 24.6425 14.4563 24.5861 14.3199C24.5297 14.1835 24.4469 14.0597 24.3424 13.9555V13.9555ZM19.6083 19.8125H17.9208V21.5C17.9208 21.6492 17.8615 21.7923 17.756 21.8977C17.6506 22.0032 17.5075 22.0625 17.3583 22.0625C17.2091 22.0625 17.066 22.0032 16.9605 21.8977C16.8551 21.7923 16.7958 21.6492 16.7958 21.5V19.8125H15.1083C14.9591 19.8125 14.816 19.7532 14.7105 19.6477C14.6051 19.5423 14.5458 19.3992 14.5458 19.25C14.5458 19.1008 14.6051 18.9577 14.7105 18.8523C14.816 18.7468 14.9591 18.6875 15.1083 18.6875H16.7958V17C16.7958 16.8508 16.8551 16.7077 16.9605 16.6023C17.066 16.4968 17.2091 16.4375 17.3583 16.4375C17.5075 16.4375 17.6506 16.4968 17.756 16.6023C17.8615 16.7077 17.9208 16.8508 17.9208 17V18.6875H19.6083C19.7575 18.6875 19.9006 18.7468 20.006 18.8523C20.1115 18.9577 20.1708 19.1008 20.1708 19.25C20.1708 19.3992 20.1115 19.5423 20.006 19.6477C19.9006 19.7532 19.7575 19.8125 19.6083 19.8125ZM20.1708 13.625H14.5458V13.0625C14.5458 12.3166 14.8421 11.6012 15.3696 11.0738C15.897 10.5463 16.6124 10.25 17.3583 10.25C18.1042 10.25 18.8196 10.5463 19.347 11.0738C19.8745 11.6012 20.1708 12.3166 20.1708 13.0625V13.625Z" fill="white"/>
</svg>
