<svg width="25" height="24" viewBox="0 0 25 24" fill="none" xmlns="http://www.w3.org/2000/svg">
<path d="M2 17.625C2 18.3212 2.27656 18.9889 2.76884 19.4812C3.26113 19.9734 3.92881 20.25 4.625 20.25H20.375C21.0712 20.25 21.7389 19.9734 22.2312 19.4812C22.7234 18.9889 23 18.3212 23 17.625V10.4062H2V17.625ZM5.09375 14.0625C5.09375 13.6895 5.24191 13.3319 5.50563 13.0681C5.76935 12.8044 6.12704 12.6562 6.5 12.6562H8.75C9.12296 12.6562 9.48065 12.8044 9.74437 13.0681C10.0081 13.3319 10.1562 13.6895 10.1562 14.0625V15C10.1562 15.373 10.0081 15.7306 9.74437 15.9944C9.48065 16.2581 9.12296 16.4062 8.75 16.4062H6.5C6.12704 16.4062 5.76935 16.2581 5.50563 15.9944C5.24191 15.7306 5.09375 15.373 5.09375 15V14.0625ZM20.375 3.75H4.625C3.92881 3.75 3.26113 4.02656 2.76884 4.51884C2.27656 5.01113 2 5.67881 2 6.375V7.59375H23V6.375C23 5.67881 22.7234 5.01113 22.2312 4.51884C21.7389 4.02656 21.0712 3.75 20.375 3.75Z" fill="white"/>
</svg>
