<svg width="30" height="31" viewBox="0 0 30 31" fill="none" xmlns="http://www.w3.org/2000/svg">
<g filter="url(#filter0_d_325_539)">
<path d="M22.5 2.99999H21.75V2.27109C21.75 1.86749 21.4397 1.52109 21.0361 1.50093C20.9347 1.49604 20.8333 1.5118 20.7382 1.54724C20.6431 1.58267 20.5561 1.63706 20.4826 1.7071C20.4091 1.77713 20.3506 1.86136 20.3106 1.95468C20.2706 2.048 20.25 2.14847 20.25 2.24999V2.99999H9.75V2.27109C9.75 1.86749 9.43969 1.52109 9.03609 1.50093C8.93469 1.49604 8.83334 1.5118 8.7382 1.54724C8.64307 1.58267 8.55611 1.63706 8.48261 1.7071C8.40911 1.77713 8.3506 1.86136 8.31062 1.95468C8.27063 2.048 8.25001 2.14847 8.25 2.24999V2.99999H7.5C6.70435 2.99999 5.94129 3.31606 5.37868 3.87867C4.81607 4.44128 4.5 5.20434 4.5 5.99999V6.56249C4.5 6.61222 4.51975 6.65991 4.55492 6.69507C4.59008 6.73024 4.63777 6.74999 4.6875 6.74999H25.3125C25.3622 6.74999 25.4099 6.73024 25.4451 6.69507C25.4802 6.65991 25.5 6.61222 25.5 6.56249V5.99999C25.5 5.20434 25.1839 4.44128 24.6213 3.87867C24.0587 3.31606 23.2956 2.99999 22.5 2.99999ZM25.3125 8.24999H4.6875C4.63777 8.24999 4.59008 8.26975 4.55492 8.30491C4.51975 8.34007 4.5 8.38776 4.5 8.43749V19.5C4.5 20.2956 4.81607 21.0587 5.37868 21.6213C5.94129 22.1839 6.70435 22.5 7.5 22.5H22.5C23.2956 22.5 24.0587 22.1839 24.6213 21.6213C25.1839 21.0587 25.5 20.2956 25.5 19.5V8.43749C25.5 8.38776 25.4802 8.34007 25.4451 8.30491C25.4099 8.26975 25.3622 8.24999 25.3125 8.24999ZM14.2303 18.8016C13.6598 19.252 12.8827 19.5 12.0413 19.5C10.7348 19.5 9.76875 18.6487 9.33844 17.9203C9.23712 17.749 9.208 17.5444 9.25749 17.3517C9.30698 17.1589 9.43103 16.9937 9.60234 16.8923C9.77366 16.791 9.9782 16.7619 10.171 16.8114C10.3638 16.8609 10.529 16.9849 10.6303 17.1562C10.6809 17.2425 11.153 18 12.0413 18C12.8222 18 13.7344 17.6583 13.7344 16.6959C13.7344 16.403 13.6772 15.9951 13.4062 15.7172C13.0059 15.3075 12.3398 15.1233 11.9948 15.1233C11.7959 15.1233 11.6052 15.0443 11.4645 14.9036C11.3239 14.7629 11.2448 14.5722 11.2448 14.3733C11.2448 14.1744 11.3239 13.9836 11.4645 13.8429C11.6052 13.7023 11.7959 13.6233 11.9948 13.6233C12.2222 13.6233 12.8109 13.5014 13.1798 13.1241C13.2796 13.0259 13.3584 12.9084 13.4114 12.7789C13.4643 12.6493 13.4903 12.5103 13.4878 12.3703C13.4878 11.2814 12.1458 11.25 11.993 11.25C11.1802 11.25 10.8773 11.7473 10.8647 11.7684C10.816 11.8558 10.7503 11.9325 10.6714 11.9941C10.5926 12.0557 10.5022 12.1009 10.4057 12.127C10.3091 12.1532 10.2083 12.1597 10.1092 12.1463C10.0101 12.1329 9.91462 12.0998 9.82847 12.049C9.74233 11.9981 9.66722 11.9306 9.60758 11.8503C9.54794 11.77 9.50496 11.6785 9.48118 11.5814C9.4574 11.4842 9.4533 11.3833 9.46912 11.2845C9.48493 11.1857 9.52035 11.0911 9.57328 11.0062C9.93141 10.3969 10.7555 9.74999 11.993 9.74999C12.7636 9.74999 13.4817 9.97359 14.0147 10.3791C14.6423 10.8572 14.9878 11.5641 14.9878 12.3703C14.9899 12.7046 14.9258 13.0359 14.7992 13.3453C14.6725 13.6546 14.4859 13.9358 14.25 14.1726C14.1961 14.228 14.1394 14.2795 14.0817 14.3297C14.2225 14.4314 14.3546 14.5448 14.4764 14.6686C14.9714 15.1748 15.233 15.8756 15.233 16.6959C15.2344 17.5425 14.8777 18.2901 14.2303 18.8016ZM20.25 18.5625C20.25 18.7614 20.171 18.9522 20.0303 19.0928C19.8897 19.2335 19.6989 19.3125 19.5 19.3125C19.3011 19.3125 19.1103 19.2335 18.9697 19.0928C18.829 18.9522 18.75 18.7614 18.75 18.5625V12.0136L17.6948 12.7912C17.6156 12.8497 17.5255 12.892 17.4299 12.9157C17.3343 12.9394 17.2349 12.944 17.1375 12.9293C17.0401 12.9146 16.9465 12.8808 16.8622 12.83C16.7778 12.7791 16.7043 12.7121 16.6458 12.6328C16.5873 12.5535 16.545 12.4635 16.5213 12.3679C16.4976 12.2722 16.493 12.1729 16.5077 12.0755C16.5224 11.978 16.5562 11.8845 16.6071 11.8001C16.6579 11.7157 16.7249 11.6422 16.8042 11.5837L18.8395 10.0837C18.9684 9.98876 19.1243 9.93752 19.2844 9.93749H19.5C19.6989 9.93749 19.8897 10.0165 20.0303 10.1572C20.171 10.2978 20.25 10.4886 20.25 10.6875V18.5625Z" fill="#1A1F16" fill-opacity="0.5"/>
</g>
<defs>
<filter id="filter0_d_325_539" x="-1" y="0" width="32" height="32" filterUnits="userSpaceOnUse" color-interpolation-filters="sRGB">
<feFlood flood-opacity="0" result="BackgroundImageFix"/>
<feColorMatrix in="SourceAlpha" type="matrix" values="0 0 0 0 0 0 0 0 0 0 0 0 0 0 0 0 0 0 127 0" result="hardAlpha"/>
<feOffset dy="4"/>
<feGaussianBlur stdDeviation="2"/>
<feComposite in2="hardAlpha" operator="out"/>
<feColorMatrix type="matrix" values="0 0 0 0 0 0 0 0 0 0 0 0 0 0 0 0 0 0 0.25 0"/>
<feBlend mode="normal" in2="BackgroundImageFix" result="effect1_dropShadow_325_539"/>
<feBlend mode="normal" in="SourceGraphic" in2="effect1_dropShadow_325_539" result="shape"/>
</filter>
</defs>
</svg>
