<svg width="169" height="24" viewBox="0 0 169 24" fill="none" xmlns="http://www.w3.org/2000/svg">
<path d="M19.0051 22.5C18.8472 22.5006 18.6932 22.4514 18.5649 22.3594L12.5364 17.9887L6.50776 22.3594C6.37897 22.4528 6.2238 22.5028 6.06469 22.5022C5.90558 22.5017 5.75078 22.4505 5.62267 22.3561C5.49455 22.2618 5.39976 22.1291 5.352 21.9774C5.30424 21.8256 5.30599 21.6626 5.35698 21.5119L7.70823 14.5477L1.61448 10.3687C1.48249 10.2783 1.38287 10.1481 1.33017 9.997C1.27748 9.84594 1.27448 9.68198 1.3216 9.52908C1.36873 9.37619 1.46351 9.24237 1.59211 9.14718C1.7207 9.05199 1.87637 9.00042 2.03636 9H9.55417L11.8229 2.01797C11.8718 1.86723 11.9672 1.73584 12.0953 1.64266C12.2235 1.54947 12.3779 1.49928 12.5364 1.49928C12.6948 1.49928 12.8492 1.54947 12.9774 1.64266C13.1056 1.73584 13.2009 1.86723 13.2498 2.01797L15.5185 9.00234H23.0363C23.1965 9.00226 23.3526 9.05348 23.4815 9.14848C23.6105 9.24349 23.7057 9.3773 23.7531 9.53031C23.8005 9.68332 23.7977 9.8475 23.7451 9.9988C23.6924 10.1501 23.5927 10.2806 23.4606 10.3711L17.3645 14.5477L19.7143 21.51C19.7524 21.6227 19.7631 21.7429 19.7456 21.8606C19.728 21.9782 19.6827 22.09 19.6135 22.1868C19.5442 22.2835 19.4529 22.3623 19.3471 22.4168C19.2413 22.4713 19.1241 22.4998 19.0051 22.5Z" fill="#12805D"/>
<path d="M51.0051 22.5C50.8472 22.5006 50.6932 22.4514 50.5649 22.3594L44.5364 17.9887L38.5078 22.3594C38.379 22.4528 38.2238 22.5028 38.0647 22.5022C37.9056 22.5017 37.7508 22.4505 37.6227 22.3561C37.4946 22.2618 37.3998 22.1291 37.352 21.9774C37.3042 21.8256 37.306 21.6626 37.357 21.5119L39.7082 14.5477L33.6145 10.3687C33.4825 10.2783 33.3829 10.1481 33.3302 9.997C33.2775 9.84594 33.2745 9.68198 33.3216 9.52908C33.3687 9.37619 33.4635 9.24237 33.5921 9.14718C33.7207 9.05199 33.8764 9.00042 34.0364 9H41.5542L43.8229 2.01797C43.8718 1.86723 43.9672 1.73584 44.0953 1.64266C44.2235 1.54947 44.3779 1.49928 44.5364 1.49928C44.6948 1.49928 44.8492 1.54947 44.9774 1.64266C45.1056 1.73584 45.2009 1.86723 45.2498 2.01797L47.5185 9.00234H55.0363C55.1965 9.00226 55.3526 9.05348 55.4815 9.14848C55.6105 9.24349 55.7057 9.3773 55.7531 9.53031C55.8005 9.68332 55.7977 9.8475 55.7451 9.9988C55.6924 10.1501 55.5927 10.2806 55.4606 10.3711L49.3645 14.5477L51.7143 21.51C51.7524 21.6227 51.7631 21.7429 51.7456 21.8606C51.728 21.9782 51.6827 22.09 51.6135 22.1868C51.5442 22.2835 51.4529 22.3623 51.3471 22.4168C51.2413 22.4713 51.1241 22.4998 51.0051 22.5Z" fill="#12805D"/>
<path d="M83.0051 22.5C82.8472 22.5006 82.6932 22.4514 82.5649 22.3594L76.5364 17.9887L70.5078 22.3594C70.379 22.4528 70.2238 22.5028 70.0647 22.5022C69.9056 22.5017 69.7508 22.4505 69.6227 22.3561C69.4946 22.2618 69.3998 22.1291 69.352 21.9774C69.3042 21.8256 69.306 21.6626 69.357 21.5119L71.7082 14.5477L65.6145 10.3687C65.4825 10.2783 65.3829 10.1481 65.3302 9.997C65.2775 9.84594 65.2745 9.68198 65.3216 9.52908C65.3687 9.37619 65.4635 9.24237 65.5921 9.14718C65.7207 9.05199 65.8764 9.00042 66.0364 9H73.5542L75.8229 2.01797C75.8718 1.86723 75.9672 1.73584 76.0953 1.64266C76.2235 1.54947 76.3779 1.49928 76.5364 1.49928C76.6948 1.49928 76.8492 1.54947 76.9774 1.64266C77.1056 1.73584 77.2009 1.86723 77.2498 2.01797L79.5185 9.00234H87.0363C87.1965 9.00226 87.3526 9.05348 87.4815 9.14848C87.6105 9.24349 87.7057 9.3773 87.7531 9.53031C87.8005 9.68332 87.7977 9.8475 87.7451 9.9988C87.6924 10.1501 87.5927 10.2806 87.4606 10.3711L81.3645 14.5477L83.7143 21.51C83.7524 21.6227 83.7631 21.7429 83.7456 21.8606C83.728 21.9782 83.6827 22.09 83.6135 22.1868C83.5442 22.2835 83.4529 22.3623 83.3471 22.4168C83.2413 22.4713 83.1241 22.4998 83.0051 22.5Z" fill="#12805D"/>
<path d="M115.005 22.5C114.847 22.5006 114.693 22.4514 114.565 22.3594L108.536 17.9887L102.508 22.3594C102.379 22.4528 102.224 22.5028 102.065 22.5022C101.906 22.5017 101.751 22.4505 101.623 22.3561C101.495 22.2618 101.4 22.1291 101.352 21.9774C101.304 21.8256 101.306 21.6626 101.357 21.5119L103.708 14.5477L97.6145 10.3687C97.4825 10.2783 97.3829 10.1481 97.3302 9.997C97.2775 9.84594 97.2745 9.68198 97.3216 9.52908C97.3687 9.37619 97.4635 9.24237 97.5921 9.14718C97.7207 9.05199 97.8764 9.00042 98.0364 9H105.554L107.823 2.01797C107.872 1.86723 107.967 1.73584 108.095 1.64266C108.223 1.54947 108.378 1.49928 108.536 1.49928C108.695 1.49928 108.849 1.54947 108.977 1.64266C109.106 1.73584 109.201 1.86723 109.25 2.01797L111.519 9.00234H119.036C119.197 9.00226 119.353 9.05348 119.482 9.14848C119.611 9.24349 119.706 9.3773 119.753 9.53031C119.801 9.68332 119.798 9.8475 119.745 9.9988C119.692 10.1501 119.593 10.2806 119.461 10.3711L113.364 14.5477L115.714 21.51C115.752 21.6227 115.763 21.7429 115.746 21.8606C115.728 21.9782 115.683 22.09 115.613 22.1868C115.544 22.2835 115.453 22.3623 115.347 22.4168C115.241 22.4713 115.124 22.4998 115.005 22.5Z" fill="#12805D"/>
<g clip-path="url(#clip0_13_481)">
<path d="M151.036 9.75H142.974L140.536 2.25L138.099 9.75H130.036L136.599 14.25L134.068 21.75L140.536 17.0625L147.005 21.75L144.474 14.25L151.036 9.75Z" stroke="#12805D" stroke-width="2" stroke-linejoin="round"/>
<path d="M140.536 2.25V17.0625L134.068 21.75L136.599 14.25L130.036 9.75H138.099L140.536 2.25Z" fill="#12805D"/>
</g>
<defs>
<clipPath id="clip0_13_481">
<rect width="24" height="24" fill="white" transform="translate(128.536)"/>
</clipPath>
</defs>
</svg>
